<svg version="1" xmlns="http://www.w3.org/2000/svg" width="530.667" height="530.667" viewBox="0 0 398.000000 398.000000"><path d="M138.6 60.5c-25.1 4.2-38.2 13.9-44.4 32.8-3.3 10.2-4.2 18.1-4.2 40.2-.1 28.6-2.1 36.7-11.5 45.4-5.5 5.1-13.1 8.7-21.7 10.5l-6.3 1.3-.3 8.1-.3 8.1 2.8.6c14.7 3 20.6 5.8 27.2 13C88.5 229.9 90 237 90 269.7c0 25.2.7 30.6 5.1 40 6.1 13 22.3 23.2 44.2 27.8 11.2 2.4 10.7 2.8 10.7-6.9v-8.4l-4.1-.7c-6.8-1.2-17.4-7.1-22.3-12.6-7.8-8.7-8.7-12.6-9.6-41.4-.9-27.3-2.2-35.9-6.7-45.2-4.9-10.1-15-18.4-25.8-21.1-2.2-.5-5.3-1.3-7-1.7-2.7-.7-2.4-.9 3.5-2.1 14-3 24.4-10.7 29.7-22.1 4-8.6 5.3-17.3 5.9-40.8.3-12.1 1-24.4 1.5-27.4 1.2-7.3 5.2-15.8 9.7-20.5 4.4-4.6 13.9-9.4 20.5-10.2l4.7-.7v-8.3c0-9.6 1.1-9-11.4-6.9zM246 67.5c0 8.3.1 8.5 2.4 8.5 4.2 0 14.1 3.6 18.8 6.8 2.5 1.7 6 5.3 7.7 7.9 5.5 8.2 6.2 12.5 7.2 39.8 1.2 35.7 3.8 46.4 13.4 56 4.9 5 14.3 9.9 20.7 11 4.6.8 4.1 1.7-2.2 3.4-13.4 3.9-24 14.1-27.9 27.1-2.5 8.3-3.3 15.9-4 39.5-.7 22.5-1 25.6-3.1 30.9-3.8 9.8-14.9 18.8-27.1 21.9l-5.4 1.4-.3 8.8-.3 8.8 5.3-.7c14.2-1.8 32.6-9.5 40.6-17 5-4.7 10-12.9 12.2-20.1.8-2.5 1.5-15 2-33 .6-25.8.9-29.7 2.9-35.7 4-12.4 15-21.1 30.4-24l6.7-1.3V190.2l-6.5-1.2c-12.3-2.3-22.4-8.5-27.1-16.6-4.7-8-5.4-13.1-6.3-42.9-.8-27.1-.9-28.3-3.7-36.5-2.5-7.6-3.5-9.2-9.9-15.6-7.4-7.6-11.2-9.9-21.6-13.4-5.1-1.8-20.7-5-24.1-5-.5 0-.8 3.8-.8 8.5z"/></svg>